# xmcd
#
# Track frame offsets: 
#        150
#        19280
#        38552
#        58232
#
# Disc length: 1100 seconds
#
# Revision: 3
# Processed by: cddbd v1.5.2PL0 Copyright (c) Steve Scherf et al.
# Submitted via: ExactAudioCopy v1.3
#
DISCID=2e044a04
DTITLE=Simply Red - We’re In This Together
DYEAR=1996
DGENRE=Pop
TTITLE0=We’re In This Together
TTITLE1=We’re In This Together (Universal Feeling Mix)
TTITLE2=Something Got Me Started (live)
TTITLE3=Money’s Too Tight (live)
EXTD=
EXTT0=
EXTT1=
EXTT2=
EXTT3=
PLAYORDER=
